<svg width="249" height="234" viewBox="0 0 249 234" fill="none" xmlns="http://www.w3.org/2000/svg">
<path d="M27.687 234H207.206V220.603H167.015H152.725H138.435H124.145H109.855H97.3511H82.1679H70.5573H55.374H41.5305H27.687V234Z" fill="black"/>
<path d="M207.206 220.603H220.603V206.313H207.206V220.603Z" fill="black"/>
<path d="M220.603 206.313H234V192.916L220.603 192.469V206.313Z" fill="black"/>
<path d="M234 192.916H248.29V138.435H234V192.916Z" fill="black"/>
<path d="M234 138.435V123.252H207.206V138.435H234Z" fill="black"/>
<path d="M207.206 138.435H194.702V178.626H207.206V138.435Z" fill="black"/>
<path d="M194.702 178.626H179.519V192.469H194.702V178.626Z" fill="black"/>
<path d="M179.519 178.626V150.939H167.015V192.916V206.313H179.519V192.469V178.626Z" fill="black"/>
<path d="M167.015 220.603V206.313H152.725V220.603H167.015Z" fill="black"/>
<path d="M152.725 206.313V192.916V178.626H138.435V192.916V206.313H152.725Z" fill="black"/>
<path d="M138.435 206.313H124.145V220.603H138.435V206.313Z" fill="black"/>
<path d="M109.855 220.603V206.313V178.626H97.3511V206.313V220.603H109.855Z" fill="black"/>
<path d="M82.1679 220.603V206.313V178.626H70.5573V206.313V220.603H82.1679Z" fill="black"/>
<path d="M55.374 220.603V206.313H41.9771L41.5305 220.603H55.374Z" fill="black"/>
<path d="M41.9771 206.313V192.469V178.626H27.687V192.916V206.313H41.9771Z" fill="black"/>
<path d="M14.2901 206.313V220.603H27.687V206.313H14.2901Z" fill="black"/>
<path d="M14.2901 150.939H0V206.313H14.2901V192.916V150.939Z" fill="black"/>
<path d="M27.687 123.252H14.2901V150.939H27.687V138.435V123.252Z" fill="black"/>
<path d="M27.687 109.855V123.252H41.5305V109.855H27.687Z" fill="black"/>
<path d="M55.374 12.5038V0H14.2901V68.771H0V82.1679H14.2901V95.5649H0V109.855H27.687V95.5649V55.374V25.9008V12.5038H55.374Z" fill="black"/>
<path d="M124.145 12.5038H55.374V25.9008H124.145V12.5038Z" fill="black"/>
<path d="M152.725 109.855H179.519V95.5649H167.015V82.1679H179.519V68.771H167.015V0H124.145V12.5038H152.725V25.9008V55.374V95.5649V109.855Z" fill="black"/>
<path d="M152.725 123.252V109.855H138.435V123.252H152.725Z" fill="black"/>
<path d="M167.015 150.939V123.252H152.725V137.095V150.939H167.015Z" fill="black"/>
<path d="M167.015 220.603H207.206V206.313H194.702V192.469H179.519V206.313H167.015V220.603Z" fill="#4C312A"/>
<path d="M138.435 206.313V220.603H152.725V206.313H138.435Z" fill="#4C312A"/>
<path d="M152.725 206.313H167.015V192.916H152.725V206.313Z" fill="#4C312A"/>
<path d="M124.145 206.313H138.435V192.916H124.145V206.313Z" fill="#4C312A"/>
<path d="M109.855 220.603H124.145V206.313H109.855V220.603Z" fill="#4C312A"/>
<path d="M82.1679 220.603H97.3511V206.313H82.1679V220.603Z" fill="#4C312A"/>
<path d="M55.374 220.603H70.5573V206.313H55.374V220.603Z" fill="#4C312A"/>
<path d="M41.9771 206.313H55.374V192.469H41.9771V206.313Z" fill="#4C312A"/>
<path d="M27.687 220.603H41.5305L41.9771 206.313H27.687V220.603Z" fill="#4C312A"/>
<path d="M14.2901 206.313H27.687V192.916H14.2901V206.313Z" fill="#4C312A"/>
<path d="M82.1679 95.5649H97.3511V109.855H82.1679V95.5649Z" fill="#4C312A"/>
<path d="M41.9771 55.374V40.1908H55.374V25.9008H27.687V55.374H41.9771Z" fill="#4C312A"/>
<path d="M124.145 25.9008V40.1908H138.435V55.374H152.725V25.9008H124.145Z" fill="#4C312A"/>
<path d="M124.145 12.5038V25.9008H152.725V12.5038H124.145Z" fill="#764830"/>
<path d="M55.374 12.5038H27.687V25.9008H55.374V12.5038Z" fill="#764830"/>
<path d="M27.687 178.626H41.9771V192.469H55.374V206.313H70.5573V178.626H55.374V165.229H27.687V178.626Z" fill="#764830"/>
<path d="M138.435 178.626H152.725V165.229H124.145V178.626H109.855V206.313H124.145V192.916H138.435V178.626Z" fill="#764830"/>
<path d="M194.702 178.626V192.469V206.313H207.206H220.603V192.469L234 192.916V138.435H207.206V178.626H194.702Z" fill="#764830"/>
<path fill-rule="evenodd" clip-rule="evenodd" d="M70.5573 123.252H109.855V109.855H124.145V95.5649H138.435V55.374H124.145V40.1908H55.374V55.374H41.9771L41.5305 95.5649H55.374V109.855H70.5573V123.252ZM97.3511 95.5649H82.1679V109.855H97.3511V95.5649Z" fill="#764830"/>
<path d="M97.3511 178.626H109.855H124.145V165.229H152.725V150.939V137.095H138.435V123.252H124.145V109.855H109.855V123.252H70.5573V109.855H55.374V123.252H41.5305V138.435H27.687V150.939V165.229H55.374V178.626H70.5573H82.1679V206.313H97.3511V178.626Z" fill="#F9EBD0"/>
<path d="M124.145 95.5649V109.855H138.435V95.5649H124.145Z" fill="#F9EBD0"/>
<path d="M138.435 55.374V95.5649H152.725V55.374H138.435Z" fill="#F9EBD0"/>
<path d="M124.145 55.374H138.435V40.1908H124.145V55.374Z" fill="#F9EBD0"/>
<path d="M124.145 25.9008H55.374V40.1908H124.145V25.9008Z" fill="#F9EBD0"/>
<path d="M55.374 55.374V40.1908H41.9771V55.374H55.374Z" fill="#F9EBD0"/>
<path d="M41.5305 95.5649L41.9771 55.374H27.687V95.5649H41.5305Z" fill="#F9EBD0"/>
<path d="M55.374 95.5649H41.5305V109.855H55.374V95.5649Z" fill="#F9EBD0"/>
<path d="M27.687 150.939H14.2901V192.916H27.687V178.626V165.229V150.939Z" fill="#F5D3A3"/>
<path d="M41.5305 123.252H27.687V138.435H41.5305V123.252Z" fill="#F5D3A3"/>
<path d="M41.5305 109.855V123.252H55.374V109.855H41.5305Z" fill="#F5D3A3"/>
<path d="M27.687 109.855H41.5305V95.5649H27.687V109.855Z" fill="#F5D3A3"/>
<path d="M138.435 123.252V109.855H124.145V123.252H138.435Z" fill="#F5D3A3"/>
<path d="M138.435 109.855H152.725V95.5649H138.435V109.855Z" fill="#F5D3A3"/>
<path d="M152.725 123.252H138.435V137.095H152.725V123.252Z" fill="#F5D3A3"/>
<path d="M167.015 150.939H152.725V165.229V178.626V192.916H167.015V150.939Z" fill="#F5D3A3"/>
<path d="M124.145 78.5954H110.748V64.3054H124.145V78.5954Z" fill="black"/>
<path d="M69.6641 78.5954H56.2672V64.3054H69.6641V78.5954Z" fill="black"/>
<path d="M124.145 78.5954H110.748V64.3054H124.145V78.5954Z" stroke="black"/>
<path d="M69.6641 78.5954H56.2672V64.3054H69.6641V78.5954Z" stroke="black"/>
<path d="M124.145 93.6718H110.748V79.3817H124.145V93.6718Z" fill="#0398D8"/>
<path d="M69.6641 93.6718H56.2672V79.3817H69.6641V93.6718Z" fill="#0398D8"/>
<path d="M124.145 93.6718H110.748V79.3817H124.145V93.6718Z" stroke="#0398D8"/>
<path d="M69.6641 93.6718H56.2672V79.3817H69.6641V93.6718Z" stroke="#0398D8"/>
</svg>
